<svg width="40" height="40" viewBox="0 0 40 40" fill="none" xmlns="http://www.w3.org/2000/svg">
<rect width="40" height="40" rx="6" fill="url(#paint0_linear_4275_15268)"/>
<path d="M20.9532 9.27344L9.32762 9.27344C7.92018 9.27344 7.04054 10.797 7.74426 12.0159L20.3707 33.8855C21.0744 35.1043 22.8337 35.1043 23.5374 33.8855L25.9023 29.7893M28.8251 9.27344L34.5804 9.27344C35.9878 9.27344 36.8675 10.797 36.1638 12.0159L32.9057 17.659" stroke="#71716F" stroke-width="1.40112" stroke-linecap="round"/>
<path d="M20.0428 16.264L20.3001 14.2988C20.4828 12.9033 19.0863 11.8333 17.7864 12.3729L4.6145 17.8399C3.31459 18.3794 3.08621 20.1238 4.20341 20.9798L15.5239 29.6535C16.6411 30.5094 18.266 29.835 18.4487 28.4395L18.706 26.4743L18.9326 24.3146" stroke="#71716F" stroke-width="1.40112" stroke-linecap="round"/>
<path d="M27.4074 9.22366L22.1868 7.13513C22.127 7.1112 22.0684 7.17461 22.0971 7.23225L23.1343 9.31745C23.144 9.3369 23.144 9.35987 23.1343 9.37959L22.0971 11.4939C22.0684 11.5524 22.127 11.6141 22.1868 11.5885L27.4074 9.35327C27.4652 9.32855 27.4651 9.24676 27.4074 9.22366Z" fill="#71716F"/>
<path d="M28.9267 24.2142L24.5077 27.6911C24.4571 27.7309 24.4827 27.8134 24.547 27.8173L26.8714 27.9617C26.8931 27.963 26.913 27.9745 26.9252 27.9927L28.2377 29.9482C28.2739 30.0022 28.3567 29.9824 28.3644 29.9178L29.039 24.279C29.0464 24.2166 28.9756 24.1757 28.9267 24.2142Z" fill="#71716F"/>
<path d="M30.171 23.0854L34.4967 19.4929C34.5463 19.4517 34.5185 19.37 34.4541 19.3677L32.1267 19.2849C32.105 19.2841 32.0848 19.2731 32.072 19.2552L30.7084 17.3351C30.6707 17.2821 30.5885 17.3041 30.5825 17.3689L30.0571 23.0235C30.0513 23.0861 30.1232 23.1251 30.171 23.0854Z" fill="#71716F"/>
<path d="M19.0635 22.4076L22.0512 17.6441C22.0854 17.5895 22.0335 17.5206 21.9717 17.5385L19.7347 18.1865C19.7138 18.1925 19.6912 18.1884 19.6736 18.1754L17.7786 16.777C17.7262 16.7384 17.655 16.785 17.6695 16.8484L18.936 22.3844C18.95 22.4456 19.0304 22.4602 19.0635 22.4076Z" fill="#71716F"/>
<defs>
<linearGradient id="paint0_linear_4275_15268" x1="40" y1="-3.54839" x2="-7.69713" y2="27.6057" gradientUnits="userSpaceOnUse">
<stop offset="0.132776" stop-color="#7ADFF1" stop-opacity="0.5"/>
<stop offset="0.344226" stop-color="#9EFF70"/>
<stop offset="0.5" stop-color="#9EFF70"/>
<stop offset="0.934746" stop-color="#7ADFF1" stop-opacity="0.5"/>
</linearGradient>
</defs>
</svg>
