<svg width="40" height="40" viewBox="0 0 40 40" fill="none" xmlns="http://www.w3.org/2000/svg">
<rect width="40" height="40" rx="6" fill="url(#paint0_linear_3088_12127)"/>
<path d="M13.342 13.2078L7.20801 16.2027L10.01 16.9916L11.0982 19.7266L13.342 13.2078Z" fill="#71716F"/>
<path d="M25.8384 26.7545L20.0307 29.5902C19.9714 29.6192 19.9792 29.7073 20.0428 29.7252L22.6277 30.453C22.6492 30.459 22.6666 30.4748 22.6749 30.4957L23.6789 33.0189C23.7035 33.0809 23.7908 33.0789 23.8125 33.0159L25.9369 26.8437C25.9579 26.7828 25.8957 26.7265 25.8384 26.7545Z" fill="#71716F"/>
<path d="M31.639 8.36011C28.2113 4.93258 22.6536 4.93245 19.226 8.36011C15.7985 11.7878 15.7985 17.3454 19.226 20.7731C22.6536 24.2008 28.2113 24.2007 31.639 20.7731C35.0667 17.3454 35.0667 11.7878 31.639 8.36011ZM32.656 7.34314C36.6453 11.3324 36.6453 17.8008 32.656 21.7901C28.6666 25.7792 22.1989 25.7787 18.2096 21.7895C14.2206 17.8002 14.2206 11.333 18.2096 7.34377C22.1989 3.35452 28.6666 3.35401 32.656 7.34314Z" fill="#71716F"/>
<path d="M23.8611 16.1388C20.4334 12.7113 14.8757 12.7111 11.4481 16.1388C8.0206 19.5665 8.0206 25.1241 11.4481 28.5518C14.8757 31.9795 20.4334 31.9793 23.8611 28.5518C27.2888 25.1241 27.2888 19.5665 23.8611 16.1388ZM24.8781 15.1218C28.8674 19.1111 28.8674 25.5795 24.8781 29.5688C20.8887 33.5579 14.421 33.5574 10.4317 29.5682C6.44267 25.5789 6.44267 19.1117 10.4317 15.1225C14.421 11.1332 20.8887 11.1327 24.8781 15.1218Z" fill="#71716F"/>
<path d="M14.5811 25.4159C12.57 23.4048 9.30888 23.4048 7.29776 25.4159C5.2867 27.427 5.2867 30.6881 7.29776 32.6993C9.30888 34.7104 12.57 34.7103 14.5811 32.6993C16.5923 30.6881 16.5923 27.427 14.5811 25.4159ZM15.5981 24.3989C18.1708 26.9717 18.1708 31.1435 15.5981 33.7162C13.0254 36.2889 8.85413 36.2883 6.28141 33.7156C3.70877 31.1429 3.70877 26.9723 6.28141 24.3996C8.85413 21.8268 13.0254 21.8263 15.5981 24.3989Z" fill="#71716F"/>
<defs>
<linearGradient id="paint0_linear_3088_12127" x1="40" y1="-3.54839" x2="-7.69713" y2="27.6057" gradientUnits="userSpaceOnUse">
<stop offset="0.132776" stop-color="#7ADFF1" stop-opacity="0.5"/>
<stop offset="0.344226" stop-color="#9EFF70"/>
<stop offset="0.5" stop-color="#9EFF70"/>
<stop offset="0.934746" stop-color="#7ADFF1" stop-opacity="0.5"/>
</linearGradient>
</defs>
</svg>
