<svg width="40" height="40" viewBox="0 0 40 40" fill="none" xmlns="http://www.w3.org/2000/svg">
<g clip-path="url(#clip0_4275_15298)">
<rect width="40" height="40" rx="6" fill="url(#paint0_linear_4275_15298)"/>
<path d="M6.11047 34.0997L12.6997 9.50747C12.9139 8.70815 13.6382 8.15234 14.4658 8.15234H18.7958H21.6623" stroke="#71716F" stroke-width="1.40113" stroke-linecap="round"/>
<line x1="10.0237" y1="20.8307" x2="19.0754" y2="20.8307" stroke="#71716F" stroke-width="1.40112" stroke-linecap="round"/>
<path d="M28.302 8.03656L22.5057 5.71772C22.4393 5.69116 22.3743 5.76156 22.4061 5.82556L23.5577 8.1407C23.5685 8.16229 23.5685 8.18779 23.5577 8.20968L22.4061 10.5571C22.3743 10.622 22.4393 10.6906 22.5057 10.6622L28.302 8.18046C28.3661 8.15302 28.3661 8.06221 28.302 8.03656Z" fill="#71716F"/>
<path d="M15.1885 27.4513L21.4183 27.8561C21.4897 27.8608 21.518 27.9523 21.4617 27.9964L19.425 29.5894C19.406 29.6042 19.395 29.6273 19.3953 29.6516L19.4231 32.2662C19.4238 32.3385 19.3356 32.3724 19.2879 32.3181L15.1265 27.5811C15.0805 27.5287 15.1196 27.4468 15.1885 27.4513Z" fill="#71716F"/>
<path d="M27.9781 10.6604L31.6665 24.4256L32.5886 27.8669L33.5107 31.3082C33.807 32.4143 32.7949 33.4264 31.6888 33.13L21.6623 30.4434" stroke="#71716F" stroke-width="1.40113" stroke-linecap="round"/>
<path d="M26.4163 20.5561L20.62 18.2373C20.5536 18.2107 20.4886 18.2811 20.5204 18.3451L21.672 20.6602C21.6828 20.6818 21.6828 20.7073 21.672 20.7292L20.5204 23.0767C20.4886 23.1416 20.5536 23.2102 20.62 23.1817L26.4163 20.7C26.4804 20.6725 26.4804 20.5817 26.4163 20.5561Z" fill="#71716F"/>
</g>
<defs>
<linearGradient id="paint0_linear_4275_15298" x1="40" y1="-3.54839" x2="-7.69713" y2="27.6057" gradientUnits="userSpaceOnUse">
<stop offset="0.132776" stop-color="#7ADFF1" stop-opacity="0.5"/>
<stop offset="0.344226" stop-color="#9EFF70"/>
<stop offset="0.5" stop-color="#9EFF70"/>
<stop offset="0.934746" stop-color="#7ADFF1" stop-opacity="0.5"/>
</linearGradient>
<clipPath id="clip0_4275_15298">
<rect width="40" height="40" rx="6" fill="white"/>
</clipPath>
</defs>
</svg>
