<svg width="72" height="72" viewBox="0 0 72 72" fill="none" xmlns="http://www.w3.org/2000/svg">
<path d="M22.4727 63.0974H12.1273C9.3659 63.0974 7.12732 60.8588 7.12732 58.0974V35.1606V12.2238C7.12732 9.46233 9.3659 7.22375 12.1273 7.22375H57.9973C60.7588 7.22375 62.9973 9.46233 62.9973 12.2238V24.2881" stroke="#71716F" stroke-width="3" stroke-linecap="round"/>
<path d="M33.9292 32.5648L66.5073 45.8972C68.2738 46.6201 68.12 49.2063 66.2806 49.7094L54.1141 53.0371C53.4275 53.2249 52.8923 53.7705 52.7108 54.4677L49.5523 66.596C49.0772 68.4202 46.6115 68.6404 45.83 66.9284L31.3835 35.2788C30.6275 33.6224 32.2602 31.8817 33.9292 32.5648Z" stroke="#71716F" stroke-width="3"/>
<path d="M63.5252 36.2794L67.2284 27.0226C67.399 26.5962 66.9469 26.1787 66.536 26.3831L63.1691 28.0579C63.0305 28.1268 62.8668 28.1268 62.7262 28.0579L59.3123 26.3831C58.8957 26.1787 58.4553 26.5962 58.6379 27.0226L62.6012 36.2795C62.7775 36.691 63.3605 36.691 63.5252 36.2794Z" fill="#71716F"/>
<path d="M34.6145 62.5695L25.3577 58.8663C24.9313 58.6957 24.5138 59.1478 24.7182 59.5587L26.393 62.9256C26.4619 63.0642 26.4619 63.228 26.393 63.3685L24.7182 66.7824C24.5138 67.1991 24.9313 67.6394 25.3577 67.4568L34.6145 63.4935C35.0261 63.3173 35.0261 62.7342 34.6145 62.5695Z" fill="#71716F"/>
<path d="M19.7604 13.2151H13.8992C13.3469 13.2151 12.8992 13.6628 12.8992 14.2151V19.9598" stroke="#71716F" stroke-width="2.8" stroke-linecap="round"/>
<path d="M50.4338 13.2151H56.295C56.8473 13.2151 57.295 13.6628 57.295 14.2151V19.9598" stroke="#71716F" stroke-width="2.8" stroke-linecap="round"/>
</svg>
