<svg width="72" height="72" viewBox="0 0 72 72" fill="none" xmlns="http://www.w3.org/2000/svg">
<circle cx="45.154" cy="26.6016" r="18.8124" transform="rotate(-45 45.154 26.6016)" stroke="#71716F" stroke-width="2.8"/>
<circle cx="30.2712" cy="41.793" r="18.8124" transform="rotate(-45 30.2712 41.793)" stroke="#71716F" stroke-width="2.8"/>
<circle cx="16.4423" cy="55.3125" r="11.6265" transform="rotate(-45 16.4423 55.3125)" stroke="#71716F" stroke-width="2.8"/>
<path d="M17.4774 26.5702L15.6125 39.7894C15.5924 39.9318 15.4045 39.9748 15.3248 39.8553L12.2499 35.2479C12.2229 35.2076 12.1785 35.1821 12.1295 35.1789L6.53993 34.8171C6.39489 34.8078 6.34033 34.6257 6.45634 34.5384L17.2264 26.4263C17.3384 26.3419 17.4968 26.4328 17.4774 26.5702Z" fill="#71716F"/>
<path d="M47.6368 52.1195L40.7956 63.5835C40.7219 63.707 40.5321 63.6739 40.5049 63.5327L39.4553 58.0939C39.4462 58.0463 39.415 58.0055 39.3712 57.9836L34.3583 55.4844C34.2283 55.4195 34.2485 55.2306 34.3893 55.195L47.4613 51.8896C47.5972 51.8552 47.708 52.0003 47.6368 52.1195Z" fill="#71716F"/>
</svg>
