<svg width="72" height="72" viewBox="0 0 72 72" fill="none" xmlns="http://www.w3.org/2000/svg">
<path d="M11 61.375L22.7881 17.3799C23.2161 15.7826 24.6636 14.6719 26.3173 14.6719H33.8325H38.992" stroke="#71716F" stroke-width="2.8"/>
<line x1="16.7825" y1="37.3539" x2="35.5967" y2="37.3539" stroke="#71716F" stroke-width="2.8"/>
<path d="M50.9446 14.4672L40.5117 10.2935C40.3922 10.2456 40.2751 10.3724 40.3324 10.4876L42.4052 14.6546C42.4246 14.6935 42.4246 14.7394 42.4052 14.7788L40.3324 19.004C40.2751 19.1208 40.3922 19.2443 40.5117 19.1931L50.9446 14.7262C51.06 14.6768 51.06 14.5133 50.9446 14.4672Z" fill="#71716F"/>
<path d="M27.3414 49.4082L38.5545 50.1369C38.683 50.1452 38.734 50.31 38.6326 50.3893L34.9667 53.2566C34.9325 53.2834 34.9127 53.3248 34.9132 53.3687L34.9632 58.0747C34.9646 58.2048 34.8058 58.2658 34.72 58.1681L27.2298 49.6419C27.1469 49.5476 27.2174 49.4001 27.3414 49.4082Z" fill="#71716F"/>
<path d="M50.3599 19.1844L56.9987 43.9606L58.6584 50.1547L60.3181 56.3487C60.8515 58.3396 59.0298 60.1613 57.0389 59.6279L38.9921 54.7922" stroke="#71716F" stroke-width="2.8"/>
<path d="M47.5506 36.9984L37.1177 32.8247C36.9981 32.7769 36.8811 32.9036 36.9384 33.0188L39.0112 37.1859C39.0305 37.2247 39.0305 37.2706 39.0112 37.31L36.9384 41.5353C36.8811 41.6521 36.9981 41.7755 37.1177 41.7243L47.5506 37.2574C47.6659 37.208 47.6659 37.0446 47.5506 36.9984Z" fill="#71716F"/>
</svg>
