<svg width="72" height="72" viewBox="0 0 72 72" fill="none" xmlns="http://www.w3.org/2000/svg">
<path d="M39.9048 12.5391L14.6723 12.5391C11.8597 12.5391 10.1018 15.5838 11.5081 18.0196L36.7406 61.7236C38.1469 64.1594 41.6627 64.1594 43.069 61.7236L47.795 53.5378M53.6359 12.5391L65.1374 12.5391C67.95 12.5391 69.7078 15.5838 68.3015 18.0196L61.7906 29.2968" stroke="#71716F" stroke-width="2.8"/>
<path d="M36.0855 26.5099L36.5996 22.5826C36.9648 19.7938 34.174 17.6556 31.5762 18.7338L5.25368 29.659C2.65595 30.7372 2.19954 34.2232 4.43216 35.9338L27.055 53.2672C29.2876 54.9778 32.5347 53.6301 32.8999 50.8413L33.414 46.914L33.9646 41.8414" stroke="#71716F" stroke-width="2.8"/>
<path d="M51.8318 12.4672L41.3989 8.29345C41.2794 8.24563 41.1623 8.37236 41.2196 8.48756L43.2924 12.6546C43.3118 12.6935 43.3118 12.7394 43.2924 12.7788L41.2196 17.004C41.1623 17.1208 41.2794 17.2443 41.3989 17.1931L51.8318 12.7262C51.9472 12.6768 51.9472 12.5133 51.8318 12.4672Z" fill="#71716F"/>
<path d="M53.8681 42.4263L45.0371 49.3746C44.9359 49.4542 44.9871 49.6189 45.1156 49.6269L49.7607 49.9153C49.804 49.918 49.8438 49.941 49.8683 49.9774L52.491 53.8851C52.5635 53.9931 52.729 53.9535 52.7444 53.8244L54.0924 42.5558C54.1073 42.4312 53.9657 42.3495 53.8681 42.4263Z" fill="#71716F"/>
<path d="M56.3546 40.1687L64.999 32.9896C65.098 32.9073 65.0425 32.744 64.9139 32.7394L60.2627 32.5738C60.2194 32.5723 60.179 32.5504 60.1536 32.5146L57.4285 28.6775C57.3532 28.5715 57.1889 28.6155 57.1768 28.7449L56.127 40.0452C56.1154 40.1702 56.2591 40.2481 56.3546 40.1687Z" fill="#71716F"/>
<path d="M34.1574 38.816L40.1281 29.2967C40.1965 29.1877 40.0927 29.0499 39.9691 29.0857L35.4988 30.3806C35.4571 30.3926 35.4119 30.3844 35.3766 30.3584L31.5897 27.564C31.485 27.4867 31.3427 27.5799 31.3717 27.7066L33.9026 38.7697C33.9306 38.8921 34.0914 38.9213 34.1574 38.816Z" fill="#71716F"/>
</svg>
