<svg width="90" height="40" viewBox="0 0 90 40" fill="none" xmlns="http://www.w3.org/2000/svg">
<path d="M65.7821 12.924C69.2909 12.924 70.7993 15.4827 69.5825 19.2277C68.3777 22.9355 65.1828 25.568 61.674 25.568C58.1652 25.568 56.7204 22.9349 57.9492 19.1528C59.142 15.4823 62.2734 12.9241 65.7821 12.924Z" fill="#232321"/>
<path fill-rule="evenodd" clip-rule="evenodd" d="M45 0C69.8527 0 89.9998 8.9544 90 20C90 31.0457 69.8528 40 45 40C20.1472 40 0 31.0457 0 20C0.000247392 8.9544 20.1473 0 45 0ZM67.5928 9.51253C64.4738 9.51253 61.9613 10.8843 60.0936 12.5529L60.5021 9.73551H56.8376L48.2601 36.1353H52.4707L55.7471 26.0498C56.4405 27.7554 58.1994 28.942 61.2793 28.9421C66.7375 28.9421 71.9677 25.0861 73.8713 19.2277C75.8471 13.1468 73.0508 9.51264 67.5928 9.51253ZM28.8525 28.2967H33.5889L32.1696 15.5298L42.4951 28.2967H47.1908L45.3133 9.51253H40.8602L42.6685 23.894L31.4282 9.51253H27.4211L29.3905 23.894L17.9484 9.51253H13.3333L28.8525 28.2967ZM73.4391 24.1333V28.1942H77.5V24.1333H73.4391ZM49.0715 13.5742H53.1323V9.51253H49.0715V13.5742Z" fill="#232321"/>
</svg>
