<svg width="90" height="40" viewBox="0 0 90 40" fill="none" xmlns="http://www.w3.org/2000/svg">
<path fill-rule="evenodd" clip-rule="evenodd" d="M45 0C69.8527 0 89.9998 8.95438 90 20C90 31.0457 69.8528 40.0001 45 40.0001C20.1472 40.0001 0 31.0457 0 20C0.000244141 8.95438 20.1473 0 45 0ZM16.6398 29.0893H26.6454C32.8603 29.0893 36.928 27.1646 38.7722 23.1947C40.1134 20.3076 38.8886 18.864 36.2099 18.4631C38.5119 18.062 40.9778 16.7387 42.2445 14.012C43.8652 10.5233 41.8689 8.5585 36.0065 8.5585H26.1773L16.6398 29.0893ZM29.322 11.8467L26.8631 17.1397H32.1524C34.797 17.1397 36.4528 16.1373 37.2166 14.4931C38.0362 12.7288 37.2559 11.8467 34.6113 11.8467H29.322ZM25.4101 20.2674L22.8395 25.8012H28.5695C31.2583 25.8012 33.1667 24.919 34.0236 23.0745C34.8618 21.27 33.8289 20.2674 31.1402 20.2674H25.4101ZM45.7472 9.21244H49.7155L48.0384 12.8226H44.0701L45.7472 9.21244ZM43.4606 29.1725H48.1083L55.6922 12.847H66.2355L58.6516 29.1725H63.2992L72.6109 9.12773H52.7723L43.4606 29.1725ZM68.3272 25.5618H72.2955L70.6185 29.1719H66.6502L68.3272 25.5618Z" fill="#2A2A27"/>
</svg>
