<svg width="486" height="900" viewBox="0 0 486 900" fill="none" xmlns="http://www.w3.org/2000/svg">
<g clip-path="url(#clip0_3320_23891)">
<rect width="486" height="900" fill="url(#paint0_linear_3320_23891)"/>
<g clip-path="url(#clip1_3320_23891)">
<path d="M235.772 500.647C237.034 499.32 239.271 500.055 239.146 501.757L178.388 1332.25C178.296 1333.5 176.891 1334.4 175.65 1333.99L-379.451 1151.44C-380.692 1151.03 -381.018 1149.57 -380.087 1148.59L235.772 500.647Z" fill="url(#paint1_linear_3320_23891)" stroke="url(#paint2_linear_3320_23891)" stroke-width="0.666146"/>
<path d="M207.949 523.474C206.499 524.593 204.401 523.523 204.785 521.861L392.094 -289.509C392.378 -290.737 393.903 -291.404 395.067 -290.811L915.635 -25.3496C916.799 -24.756 916.898 -23.2604 915.827 -22.4347L207.949 523.474Z" fill="url(#paint3_linear_3320_23891)" stroke="url(#paint4_linear_3320_23891)" stroke-width="0.666146"/>
<path d="M234.102 611.801C235.231 613.308 237.62 612.756 237.597 610.993L225.846 -296.374C225.83 -297.615 224.528 -298.593 223.277 -298.304L-346.2 -166.609C-347.451 -166.32 -347.92 -164.932 -347.125 -163.871L234.102 611.801Z" fill="url(#paint5_linear_3320_23891)" stroke="url(#paint6_linear_3320_23891)" stroke-width="0.666146"/>
<path d="M222.024 434.602C220.582 433.458 218.461 434.54 218.851 436.22L413.456 1275.01C413.74 1276.24 415.25 1276.9 416.409 1276.31L941.488 1008.46C942.646 1007.87 942.758 1006.38 941.707 1005.55L222.024 434.602Z" fill="url(#paint7_linear_3320_23891)" stroke="url(#paint8_linear_3320_23891)" stroke-width="0.666146"/>
</g>
</g>
<defs>
<linearGradient id="paint0_linear_3320_23891" x1="255.263" y1="-218.25" x2="255.263" y2="1300.87" gradientUnits="userSpaceOnUse">
<stop offset="0.13649" stop-color="#7ADFF1"/>
<stop offset="0.279476" stop-color="#9EFF70"/>
<stop offset="0.458948" stop-color="#9EFF70"/>
<stop offset="0.75" stop-color="#7ADFF1"/>
</linearGradient>
<linearGradient id="paint1_linear_3320_23891" x1="239.515" y1="496.709" x2="-150.608" y2="1300.15" gradientUnits="userSpaceOnUse">
<stop offset="0.0626806" stop-color="#9EFF70" stop-opacity="0"/>
<stop offset="0.24685" stop-color="#9EFF70"/>
<stop offset="0.590497" stop-color="#82E1F2"/>
<stop offset="0.962805" stop-color="#82E1F2" stop-opacity="0"/>
</linearGradient>
<linearGradient id="paint2_linear_3320_23891" x1="271.694" y1="557.056" x2="-19.073" y2="1202.61" gradientUnits="userSpaceOnUse">
<stop offset="0.23162" stop-color="white" stop-opacity="0.26"/>
<stop offset="0.645752" stop-color="white"/>
</linearGradient>
<linearGradient id="paint3_linear_3320_23891" x1="203.646" y1="526.793" x2="712.284" y2="-207.372" gradientUnits="userSpaceOnUse">
<stop offset="0.0667637" stop-color="#9EFF70" stop-opacity="0"/>
<stop offset="0.286147" stop-color="#9EFF70"/>
<stop offset="0.522623" stop-color="#82E1F2"/>
<stop offset="0.962805" stop-color="#82E1F2" stop-opacity="0"/>
</linearGradient>
<linearGradient id="paint4_linear_3320_23891" x1="254.955" y1="509.69" x2="723.18" y2="-36.393" gradientUnits="userSpaceOnUse">
<stop offset="0.0545806" stop-color="white" stop-opacity="0"/>
<stop offset="0.369908" stop-color="white"/>
</linearGradient>
<linearGradient id="paint5_linear_3320_23891" x1="237.669" y1="616.561" x2="112.772" y2="-369.836" gradientUnits="userSpaceOnUse">
<stop offset="0.0897771" stop-color="#9EFF70" stop-opacity="0"/>
<stop offset="0.252991" stop-color="#9EFF70"/>
<stop offset="0.615293" stop-color="#82E1F2"/>
<stop offset="0.962805" stop-color="#82E1F2" stop-opacity="0"/>
</linearGradient>
<linearGradient id="paint6_linear_3320_23891" x1="190.768" y1="584" x2="-177.58" y2="-111.239" gradientUnits="userSpaceOnUse">
<stop offset="0.260219" stop-color="white" stop-opacity="0"/>
<stop offset="0.357123" stop-color="white"/>
</linearGradient>
<linearGradient id="paint7_linear_3320_23891" x1="217.675" y1="431.152" x2="695.057" y2="1088.45" gradientUnits="userSpaceOnUse">
<stop offset="0.10753" stop-color="#9EFF70" stop-opacity="0"/>
<stop offset="0.280935" stop-color="#9EFF70"/>
<stop offset="0.476067" stop-color="#82E1F2"/>
<stop offset="0.962805" stop-color="#82E1F2" stop-opacity="0"/>
</linearGradient>
<linearGradient id="paint8_linear_3320_23891" x1="269.691" y1="449.366" x2="755.797" y2="1009.9" gradientUnits="userSpaceOnUse">
<stop offset="0.169912" stop-color="white" stop-opacity="0"/>
<stop offset="0.339339" stop-color="white"/>
<stop offset="0.435568" stop-color="white" stop-opacity="0.26"/>
</linearGradient>
<clipPath id="clip0_3320_23891">
<rect width="486" height="900" fill="white"/>
</clipPath>
<clipPath id="clip1_3320_23891">
<rect width="1279" height="667.478" fill="white" transform="translate(576.739) rotate(90)"/>
</clipPath>
</defs>
</svg>
