<svg width="1920" height="1002" viewBox="0 0 1920 1002" fill="none" xmlns="http://www.w3.org/2000/svg">
<g clip-path="url(#clip0_3315_23886)">
<path d="M933.726 511.85C931.734 509.956 932.838 506.598 935.392 506.785L2182.1 597.994C2183.99 598.132 2185.33 600.241 2184.72 602.104L1910.68 1435.41C1910.06 1437.27 1907.87 1437.76 1906.4 1436.36L933.726 511.85Z" fill="url(#paint0_linear_3315_23886)" stroke="url(#paint1_linear_3315_23886)"/>
<path d="M981.352 532.213C983.12 534.318 981.646 537.531 979.129 537.059L-249.494 306.645C-251.352 306.297 -252.449 304.051 -251.631 302.268L114.111 -495.054C114.929 -496.837 117.166 -497.078 118.471 -495.523L981.352 532.213Z" fill="url(#paint2_linear_3315_23886)" stroke="url(#paint3_linear_3315_23886)"/>
<path d="M1100.59 514.357C1102.85 512.662 1102.02 509.077 1099.37 509.111L-262.741 526.751C-264.604 526.775 -266.072 528.73 -265.638 530.608L-67.9414 1385.49C-67.5071 1387.37 -65.4236 1388.07 -63.8312 1386.88L1100.59 514.357Z" fill="url(#paint4_linear_3315_23886)" stroke="url(#paint5_linear_3315_23886)"/>
<path d="M834.581 532.489C832.864 534.653 834.488 537.837 837.011 537.251L2096.19 245.116C2098.03 244.689 2099.02 242.422 2098.13 240.683L1696.05 -547.551C1695.16 -549.29 1692.92 -549.459 1691.67 -547.881L834.581 532.489Z" fill="url(#paint6_linear_3315_23886)" stroke="url(#paint7_linear_3315_23886)"/>
</g>
<defs>
<linearGradient id="paint0_linear_3315_23886" x1="927.814" y1="506.23" x2="2133.92" y2="1091.87" gradientUnits="userSpaceOnUse">
<stop offset="0.0626806" stop-color="#9EFF70" stop-opacity="0"/>
<stop offset="0.355263" stop-color="#9EFF70"/>
<stop offset="0.756835" stop-color="#82E1F2"/>
<stop offset="0.962805" stop-color="#82E1F2" stop-opacity="0"/>
</linearGradient>
<linearGradient id="paint1_linear_3315_23886" x1="1018.41" y1="457.925" x2="1987.49" y2="894.416" gradientUnits="userSpaceOnUse">
<stop offset="0.23162" stop-color="white" stop-opacity="0.26"/>
<stop offset="0.645752" stop-color="white"/>
</linearGradient>
<linearGradient id="paint2_linear_3315_23886" x1="986.597" y1="538.459" x2="-146.238" y2="-178.717" gradientUnits="userSpaceOnUse">
<stop offset="0.0667637" stop-color="#9EFF70" stop-opacity="0"/>
<stop offset="0.286147" stop-color="#9EFF70"/>
<stop offset="0.522623" stop-color="#82E1F2"/>
<stop offset="0.962805" stop-color="#82E1F2" stop-opacity="0"/>
</linearGradient>
<linearGradient id="paint3_linear_3315_23886" x1="957.751" y1="462.568" x2="109.532" y2="-205.707" gradientUnits="userSpaceOnUse">
<stop offset="0.0545806" stop-color="white" stop-opacity="0"/>
<stop offset="0.369908" stop-color="white"/>
</linearGradient>
<linearGradient id="paint4_linear_3315_23886" x1="1107.73" y1="509.003" x2="-373.02" y2="696.494" gradientUnits="userSpaceOnUse">
<stop offset="0.0897771" stop-color="#9EFF70" stop-opacity="0"/>
<stop offset="0.620606" stop-color="#9EFF70"/>
<stop offset="0.798116" stop-color="#82E1F2"/>
<stop offset="0.962805" stop-color="#82E1F2" stop-opacity="0"/>
</linearGradient>
<linearGradient id="paint5_linear_3315_23886" x1="1058.85" y1="579.409" x2="15.179" y2="1132.36" gradientUnits="userSpaceOnUse">
<stop offset="0.260219" stop-color="white" stop-opacity="0"/>
<stop offset="0.357123" stop-color="white"/>
</linearGradient>
<linearGradient id="paint6_linear_3315_23886" x1="829.403" y1="539.016" x2="1816.12" y2="-177.616" gradientUnits="userSpaceOnUse">
<stop offset="0.10753" stop-color="#9EFF70" stop-opacity="0"/>
<stop offset="0.280935" stop-color="#9EFF70"/>
<stop offset="0.476067" stop-color="#82E1F2"/>
<stop offset="0.962805" stop-color="#82E1F2" stop-opacity="0"/>
</linearGradient>
<linearGradient id="paint7_linear_3315_23886" x1="856.744" y1="460.932" x2="1698.2" y2="-268.797" gradientUnits="userSpaceOnUse">
<stop offset="0.169912" stop-color="white" stop-opacity="0"/>
<stop offset="0.339339" stop-color="white"/>
<stop offset="0.435568" stop-color="white" stop-opacity="0.26"/>
</linearGradient>
<clipPath id="clip0_3315_23886">
<rect width="1920" height="1002" fill="white"/>
</clipPath>
</defs>
</svg>
