<svg width="90" height="40" viewBox="0 0 90 40" fill="none" xmlns="http://www.w3.org/2000/svg">
<path fill-rule="evenodd" clip-rule="evenodd" d="M90 20C89.9998 8.9544 69.8527 0 45 0C20.1473 0 0.000247392 8.9544 0 20C0 31.0457 20.1472 40 45 40C69.8528 40 90 31.0457 90 20Z" fill="#2A2A27"/>
<path fill-rule="evenodd" clip-rule="evenodd" d="M59.5399 13.0404C61.4076 11.3718 63.9201 10 67.0391 10C72.4972 10.0001 75.2934 13.6343 73.3176 19.7152C71.414 25.5736 66.1838 29.4295 60.7256 29.4295C57.6458 29.4295 55.8868 28.2429 55.1934 26.5373L51.917 36.6227H47.7064L56.2839 10.223H59.9484L59.5399 13.0404ZM33.0352 28.7842H28.2989L12.7797 10H17.3947L28.8368 24.3815L26.8674 10H30.8746L42.1148 24.3815L40.3065 10H44.7596L46.6371 28.7842H41.9414L31.6159 16.0173L33.0352 28.7842ZM72.8855 28.6816V24.6208H76.9463V28.6816H72.8855ZM52.5787 14.0617H48.5178V10H52.5787V14.0617ZM65.2284 13.4115C68.7373 13.4115 70.2457 15.9702 69.0289 19.7152C67.824 23.423 64.6291 26.0555 61.1203 26.0555C57.6115 26.0555 56.1667 23.4223 57.3955 19.6403C58.5883 15.9698 61.7198 13.4116 65.2284 13.4115Z" fill="white"/>
</svg>
