<svg width="90" height="40" viewBox="0 0 90 40" fill="none" xmlns="http://www.w3.org/2000/svg">
<path fill-rule="evenodd" clip-rule="evenodd" d="M45 0C69.8527 0 89.9998 8.92053 90 19.9244C90 30.9283 69.8528 39.8489 45 39.8489C20.1472 39.8489 0 30.9283 0 19.9244C0.000244141 8.92053 20.1473 0 45 0Z" fill="#2A2A27"/>
<path fill-rule="evenodd" clip-rule="evenodd" d="M16 29.4532H26.0056C32.2205 29.4532 36.2882 27.5358 38.1324 23.5809C39.4736 20.7047 38.2488 19.2666 35.5701 18.8671C37.8721 18.4676 40.338 17.1493 41.6047 14.4329C43.2254 10.9574 41.229 9 35.3667 9H25.5375L16 29.4532ZM28.6822 12.2758L26.2233 17.5488H31.5126C34.1572 17.5488 35.813 16.5501 36.5768 14.9122C37.3964 13.1545 36.6161 12.2758 33.9715 12.2758H28.6822ZM24.7703 20.6647L22.1997 26.1776H27.9297C30.6185 26.1776 32.5269 25.2987 33.3838 23.4611C34.222 21.6634 33.1891 20.6647 30.5004 20.6647H24.7703ZM45.1074 9.65146H49.0757L47.3986 13.248H43.4303L45.1074 9.65146ZM42.8208 29.5361H47.4685L55.0524 13.2723H65.5957L58.0118 29.5361H62.6594L71.9711 9.56707H52.1325L42.8208 29.5361ZM67.6874 25.939H71.6557L69.9787 29.5355H66.0104L67.6874 25.939Z" fill="white"/>
</svg>
