<svg width="100" height="64" viewBox="0 0 100 64" fill="none" xmlns="http://www.w3.org/2000/svg">
<path fill-rule="evenodd" clip-rule="evenodd" d="M92.2459 41.2463C92.2457 30.8888 73.1628 22.4922 49.623 22.4922C26.0831 22.4922 7.00023 30.8888 7 41.2463C7 51.6039 26.0829 60.0004 49.623 60.0004C73.163 60.0004 92.2459 51.6039 92.2459 41.2463Z" fill="#2A2A27"/>
<path d="M52.6074 21.0039C52.6077 19.1464 54.2805 17.7562 56.084 18.0615L56.2598 18.0967L70.751 21.4287C72.1058 21.7402 73.0663 22.9458 73.0664 24.3359V50.4043C73.0661 52.3218 71.2829 53.7412 69.4141 53.3115L54.9219 49.9795C53.5673 49.6679 52.6076 48.4622 52.6074 47.0723V21.0039Z" fill="#F8F8F7" stroke="#2A2A27" stroke-width="4.2623" stroke-linecap="round"/>
<path d="M27.0332 9.05566C27.0334 7.1547 28.7873 5.73887 30.6455 6.13965L53.6621 11.1064C55.0358 11.4029 56.0166 12.6172 56.0166 14.0225V52.124C56.0166 54.0253 54.2618 55.442 52.4033 55.041L29.3867 50.0742V50.0732C28.0135 49.7766 27.0334 48.5631 27.0332 47.1582V9.05566Z" fill="#F8F8F7" stroke="#2A2A27" stroke-width="4.2623" stroke-linecap="round"/>
<path d="M34.9568 14.3474C34.8504 14.1373 34.594 14.0533 34.384 14.1596L32.1023 15.3147C31.8923 15.421 31.8082 15.6774 31.9145 15.8875L47.4967 46.6676C47.603 46.8776 47.8595 46.9617 48.0695 46.8554L50.3512 45.7003C50.5612 45.594 50.6453 45.3376 50.5389 45.1275L34.9568 14.3474Z" fill="#232321"/>
<path d="M32.9692 40.954C32.8385 41.1498 32.8913 41.4145 33.0871 41.5452L35.2141 42.965C35.4098 43.0957 35.6745 43.043 35.8052 42.8472L49.4236 22.4469C49.5543 22.2511 49.5015 21.9865 49.3057 21.8558L47.1787 20.4359C46.9829 20.3052 46.7183 20.3579 46.5876 20.5537L32.9692 40.954Z" fill="#232321"/>
<path d="M62.3871 44.6907L60.6822 44.2646C60.1442 44.1302 59.623 44.5371 59.623 45.0917V47.0934C59.623 47.4846 59.8893 47.8256 60.2689 47.9204L61.9738 48.3464C62.5118 48.4809 63.0329 48.074 63.0329 47.5194V45.5177C63.0329 45.1265 62.7666 44.7855 62.3871 44.6907Z" fill="#2A2A27"/>
<path d="M68.5834 24.8879L66.8785 24.4619C66.3404 24.3275 65.8193 24.7344 65.8193 25.2889V27.2907C65.8193 27.6819 66.0856 28.0229 66.4651 28.1177L68.1701 28.5437C68.7081 28.6781 69.2292 28.2712 69.2292 27.7167V25.715C69.2292 25.3238 68.9629 24.9828 68.5834 24.8879Z" fill="#2A2A27"/>
</svg>
