<svg width="42" height="31" viewBox="0 0 42 31" fill="none" xmlns="http://www.w3.org/2000/svg">
<path d="M11.6912 4.3352C11.9274 4.11945 12.3089 4.11794 12.4681 4.39541C12.8038 4.9804 12.9961 5.65804 12.9961 6.3809C12.9961 8.59004 11.2052 10.3809 8.99609 10.3809C6.78695 10.3809 4.99609 8.59004 4.99609 6.3809C4.9961 5.65832 5.18791 4.98066 5.52318 4.39569C5.68228 4.11808 6.06391 4.11957 6.30017 4.33535C7.0112 4.9847 7.95727 5.3809 8.99609 5.3809C10.0348 5.3809 10.9803 4.9845 11.6912 4.3352Z" fill="#F8F8F7"/>
<path d="M36.1912 4.3352C36.4274 4.11945 36.8089 4.11794 36.9681 4.39541C37.3038 4.9804 37.4961 5.65804 37.4961 6.3809C37.4961 8.59004 35.7052 10.3809 33.4961 10.3809C31.287 10.3809 29.4961 8.59004 29.4961 6.3809C29.4961 5.65832 29.6879 4.98066 30.0232 4.39569C30.1823 4.11808 30.5639 4.11957 30.8002 4.33535C31.5112 4.9847 32.4573 5.3809 33.4961 5.3809C34.5348 5.3809 35.4803 4.9845 36.1912 4.3352Z" fill="#F8F8F7"/>
<path d="M20.3149 4.50463C20.5274 3.84211 21.4648 3.84211 21.6773 4.50463L25.0267 14.947C25.1748 15.4087 24.8304 15.8809 24.3455 15.8809H17.6467C17.1618 15.8809 16.8174 15.4087 16.9655 14.947L20.3149 4.50463Z" fill="#F8F8F7"/>
<path d="M38.2331 23.6069C38.4673 23.1067 38.2519 22.5101 37.7462 22.288C27.1409 17.6323 15.0661 17.6323 4.46086 22.288C3.95511 22.5101 3.73971 23.1067 3.97394 23.6069L4.61017 24.9656C4.84435 25.4657 5.43917 25.68 5.9453 25.4592C15.6096 21.2421 26.5974 21.2421 36.2617 25.4592C36.7679 25.68 37.3627 25.4657 37.5969 24.9656L38.2331 23.6069Z" fill="#F8F8F7"/>
</svg>
