<svg width="42" height="31" viewBox="0 0 42 31" fill="none" xmlns="http://www.w3.org/2000/svg">
<path d="M12.9961 6.38086C12.9961 8.59 11.2052 10.3809 8.99609 10.3809C6.78695 10.3809 4.99609 8.59 4.99609 6.38086C4.99609 4.17172 6.78695 2.38086 8.99609 2.38086C11.2052 2.38086 12.9961 4.17172 12.9961 6.38086Z" fill="#F8F8F7"/>
<path d="M11.5654 6.38086C11.5654 4.96191 10.415 3.81152 8.99609 3.81152C7.57715 3.81152 6.42676 4.96191 6.42676 6.38086C6.42676 7.79981 7.57715 8.9502 8.99609 8.9502V10.3809C6.78695 10.3809 4.99609 8.59 4.99609 6.38086C4.99609 4.17172 6.78695 2.38086 8.99609 2.38086C11.2052 2.38086 12.9961 4.17172 12.9961 6.38086C12.9961 8.59 11.2052 10.3809 8.99609 10.3809V8.9502C10.415 8.9502 11.5654 7.79981 11.5654 6.38086Z" fill="#F8F8F7"/>
<path d="M36.9961 6.38086C36.9961 8.59 35.2052 10.3809 32.9961 10.3809C30.787 10.3809 28.9961 8.59 28.9961 6.38086C28.9961 4.17172 30.787 2.38086 32.9961 2.38086C35.2052 2.38086 36.9961 4.17172 36.9961 6.38086Z" fill="#F8F8F7"/>
<path d="M35.5654 6.38086C35.5654 4.96191 34.415 3.81152 32.9961 3.81152C31.5771 3.81152 30.4268 4.96191 30.4268 6.38086C30.4268 7.79981 31.5771 8.9502 32.9961 8.9502V10.3809C30.787 10.3809 28.9961 8.59 28.9961 6.38086C28.9961 4.17172 30.787 2.38086 32.9961 2.38086C35.2052 2.38086 36.9961 4.17172 36.9961 6.38086C36.9961 8.59 35.2052 10.3809 32.9961 10.3809V8.9502C34.415 8.9502 35.5654 7.79981 35.5654 6.38086Z" fill="#F8F8F7"/>
<path d="M20.315 4.50458C20.5275 3.84206 21.4649 3.84206 21.6774 4.50458L25.0268 14.9469C25.1749 15.4086 24.8305 15.8808 24.3456 15.8808H17.6468C17.1619 15.8808 16.8175 15.4086 16.9656 14.9469L20.315 4.50458Z" fill="#F8F8F7"/>
<path d="M38.2331 21.06C38.4673 21.5602 38.2519 22.1569 37.7462 22.3789C27.1409 27.0346 15.0661 27.0346 4.46086 22.3789C3.95511 22.1569 3.73971 21.5602 3.97394 21.06L4.61017 19.7013C4.84435 19.2012 5.43917 18.9869 5.9453 19.2078C15.6096 23.4248 26.5974 23.4248 36.2617 19.2078C36.7679 18.9869 37.3627 19.2012 37.5969 19.7013L38.2331 21.06Z" fill="#F8F8F7"/>
</svg>
