<svg width="16" height="16" viewBox="0 0 16 16" fill="none" xmlns="http://www.w3.org/2000/svg">
<rect width="16" height="16" fill="url(#paint0_linear_2599_7280)"/>
<path fill-rule="evenodd" clip-rule="evenodd" d="M5.55226 10.0419H4.45013L0.838867 5.68359H1.91278L4.5753 9.0204L4.11703 5.68359H5.04948L7.66505 9.0204L7.24427 5.68359H8.28049L8.71737 10.0419H7.62471L5.222 7.07972L5.55226 10.0419Z" fill="#3A3A32"/>
<path fill-rule="evenodd" clip-rule="evenodd" d="M11.428 6.3919C11.8574 6.00318 12.4351 5.68359 13.1523 5.68359C14.4073 5.68362 15.0502 6.53026 14.5959 7.94691C14.1582 9.31172 12.9556 10.21 11.7006 10.21C10.9924 10.21 10.588 9.93359 10.4285 9.53624L9.6752 11.8858H8.70703L10.6793 5.73554H11.5219L11.428 6.3919ZM12.7359 6.47835C13.5427 6.47835 13.8896 7.07445 13.6098 7.94691C13.3328 8.8107 12.5981 9.424 11.7913 9.424C10.9846 9.42399 10.6523 8.81056 10.9349 7.92947C11.2092 7.07435 11.9292 6.47839 12.7359 6.47835Z" fill="#3A3A32"/>
<rect x="8.99316" y="5.68359" width="0.838138" height="0.838138" fill="#3A3A32"/>
<rect x="14.3223" y="9.25781" width="0.838138" height="0.838138" fill="#3A3A32"/>
<defs>
<linearGradient id="paint0_linear_2599_7280" x1="16" y1="4.76837e-07" x2="-4.76837e-07" y2="16" gradientUnits="userSpaceOnUse">
<stop offset="0.195416" stop-color="#7DDDEE"/>
<stop offset="0.504808" stop-color="#07F22B"/>
<stop offset="0.845902" stop-color="#84EDFF"/>
</linearGradient>
</defs>
</svg>
