<svg width="24" height="24" viewBox="0 0 24 24" fill="none" xmlns="http://www.w3.org/2000/svg">
<path d="M14.4757 17.3143C14.866 16.9238 14.8661 16.2906 14.4757 15.9001C14.0852 15.51 13.4519 15.5099 13.0615 15.9001L10.8276 18.134C10.1868 18.7746 9.33808 19.1257 8.38032 19.1187C7.4477 19.1118 6.56401 18.7471 5.90959 18.0718C5.90236 18.0644 5.89496 18.057 5.88749 18.0497C5.21208 17.3952 4.84681 16.5112 4.83995 15.5783C4.83328 14.66 5.20277 13.7806 5.85228 13.1311L8.08546 10.8979C8.47599 10.5073 8.47598 9.87418 8.08546 9.48365C7.69494 9.09313 7.06178 9.09313 6.67125 9.48365L4.43806 11.7168C3.41937 12.7355 2.82939 14.1262 2.84017 15.5935C2.8509 17.0462 3.42411 18.4465 4.49607 19.4853C5.5327 20.5429 6.92352 21.1085 8.36582 21.1191C9.84748 21.13 11.2142 20.5756 12.2418 19.5482L14.4757 17.3143ZM19.5621 12.2831C20.5808 11.2644 21.1708 9.87364 21.16 8.40642C21.1493 6.9588 20.5799 5.56333 19.5152 4.52562L19.317 4.3371C18.3054 3.4212 16.9947 2.91838 15.6344 2.90839C14.1829 2.89775 12.7875 3.44891 11.7577 4.47866L9.52454 6.71185C9.13409 7.10229 9.13425 7.73552 9.52454 8.12606C9.91506 8.51659 10.5482 8.51659 10.9388 8.12606L13.1719 5.89288C13.8103 5.25454 14.6853 4.90146 15.6192 4.90817C16.5538 4.91504 17.4434 5.2823 18.101 5.93983C18.1046 5.94347 18.1083 5.9473 18.112 5.95088C18.7874 6.60544 19.1534 7.48876 19.1602 8.42161C19.167 9.33991 18.7974 10.2193 18.1479 10.8689L15.9147 13.102C15.5242 13.4926 15.5242 14.1257 15.9147 14.5163C16.3053 14.9068 16.9384 14.9068 17.329 14.5163L19.5621 12.2831ZM16.0204 9.33381C16.4109 8.94328 16.4109 8.31012 16.0204 7.91959C15.6299 7.52924 14.9966 7.52913 14.6062 7.91959L7.90593 14.6198C7.51546 15.0103 7.51557 15.6435 7.90593 16.0341C8.29645 16.4246 8.92961 16.4246 9.32014 16.0341L16.0204 9.33381Z" fill="#4E4E4B"/>
</svg>
