<svg width="20" height="20" viewBox="0 0 20 20" fill="none" xmlns="http://www.w3.org/2000/svg">
<path d="M6.149 8.49164L4.28779 10.3528C3.59268 11.048 3.19295 11.9938 3.20025 12.9878C3.20755 13.9818 3.59854 14.9334 4.32664 15.639C5.03221 16.3671 5.98398 16.7581 6.97783 16.7654C7.99435 16.7728 8.91777 16.3956 9.61292 15.7005L11.4741 13.8393M13.8515 11.5074L15.7127 9.64619C16.4078 8.95108 16.8075 8.00528 16.8002 7.01127C16.7929 6.01725 16.4019 5.06568 15.6738 4.36007C14.9684 3.65467 14.0168 3.26366 13.0228 3.25635C12.0288 3.24905 11.0829 3.62609 10.3877 4.32122L8.52652 6.18244M7.17783 12.7722L12.7615 7.18852" stroke="#2A2A27" stroke-width="1.66667" stroke-linecap="round" stroke-linejoin="round"/>
</svg>
