<svg width="44" height="44" viewBox="0 0 44 44" fill="none" xmlns="http://www.w3.org/2000/svg">
<rect width="44" height="44" rx="4" fill="url(#paint0_linear_2728_23347)"/>
<g clip-path="url(#clip0_2728_23347)">
<path fill-rule="evenodd" clip-rule="evenodd" d="M22.9375 7C17.275 7 12.625 11.1063 12.625 16.375C12.625 18.1 13.6563 20.5938 14.5 22C17.0125 26.2188 17.8375 27.2125 18.25 29.5V31.375H27.625V29.5C28.0375 27.2125 28.8625 26.2188 31.375 22C32.2187 20.5938 33.25 18.1 33.25 16.375C33.25 11.1063 28.6 7 22.9375 7ZM29.7625 21.025C29.2938 21.85 28.8813 22.525 28.5063 23.1063C26.8938 25.75 26.1625 26.9687 25.7875 29.1625C25.75 29.2562 25.75 29.3687 25.75 29.4812H20.125C20.125 29.3687 20.125 29.2375 20.0875 29.1625C19.7125 26.9687 18.9812 25.7313 17.3687 23.1063C16.9937 22.525 16.5812 21.85 16.1125 21.025C15.325 19.7125 14.5 17.5937 14.5 16.375C14.5 12.25 18.2875 8.875 22.9375 8.875C25.225 8.875 27.3625 9.6625 28.975 11.1063C30.5313 12.5125 31.375 14.3875 31.375 16.375C31.375 17.6125 30.55 19.7125 29.7625 21.025ZM18.25 33.25H27.625C27.1937 35.3875 25.1875 37 22.9375 37C20.6875 37 18.6813 35.3875 18.25 33.25Z" fill="url(#paint1_linear_2728_23347)"/>
</g>
<defs>
<linearGradient id="paint0_linear_2728_23347" x1="-8.25" y1="-1.1" x2="50.6" y2="57.75" gradientUnits="userSpaceOnUse">
<stop stop-color="#7ADFF1" stop-opacity="0"/>
<stop offset="0.447676" stop-color="#9EFF70" stop-opacity="0.75"/>
<stop offset="0.886139" stop-color="#7ADFF1" stop-opacity="0"/>
</linearGradient>
<linearGradient id="paint1_linear_2728_23347" x1="10.5" y1="3.5" x2="31.5" y2="35.5" gradientUnits="userSpaceOnUse">
<stop offset="0.176046" stop-color="#D1FEBC"/>
<stop offset="0.608169" stop-color="#71716F"/>
</linearGradient>
<clipPath id="clip0_2728_23347">
<rect width="22.5" height="30" fill="white" transform="translate(10.75 7)"/>
</clipPath>
</defs>
</svg>
