<svg width="44" height="44" viewBox="0 0 44 44" fill="none" xmlns="http://www.w3.org/2000/svg">
<rect width="44" height="44" rx="4" fill="url(#paint0_linear_2728_23350)"/>
<path d="M21.2638 8.02335C22.0316 6.67972 23.9687 6.67972 24.7365 8.02335L39.0138 33.0077C39.7755 34.341 38.8121 35.9999 37.2765 35.9999H8.72376C7.1882 35.9999 6.2248 34.341 6.98646 33.0077L21.2638 8.02335ZM8.72376 33.9999H37.2765L23.0001 9.01553L8.72376 33.9999Z" fill="url(#paint1_linear_2728_23350)"/>
<path d="M24.5003 30.7323C24.5003 31.5608 23.8287 32.2323 23.0003 32.2323C22.1718 32.2323 21.5003 31.5608 21.5003 30.7323C21.5003 29.9039 22.1718 29.2323 23.0003 29.2323C23.8287 29.2323 24.5003 29.9039 24.5003 30.7323Z" fill="url(#paint2_linear_2728_23350)"/>
<path d="M21.3143 17.8299C21.301 17.5449 21.5284 17.3066 21.8138 17.3066H24.191C24.4747 17.3066 24.7016 17.5424 24.6906 17.8259L24.3156 27.5173C24.3052 27.7857 24.0846 27.998 23.816 27.998H22.2675C22.0004 27.998 21.7805 27.7881 21.768 27.5213L21.3143 17.8299Z" fill="url(#paint3_linear_2728_23350)"/>
<defs>
<linearGradient id="paint0_linear_2728_23350" x1="-8.25" y1="-1.1" x2="50.6" y2="57.75" gradientUnits="userSpaceOnUse">
<stop stop-color="#7ADFF1" stop-opacity="0"/>
<stop offset="0.0972435" stop-color="#CF7459" stop-opacity="0.65"/>
<stop offset="0.4145" stop-color="#FE3904"/>
<stop offset="0.586803" stop-color="#FE3904"/>
<stop offset="0.797548" stop-color="#DF603B" stop-opacity="0.65"/>
<stop offset="0.886139" stop-color="#7ADFF1" stop-opacity="0"/>
</linearGradient>
<linearGradient id="paint1_linear_2728_23350" x1="-2.71766" y1="3.14078" x2="17.3769" y2="43.9707" gradientUnits="userSpaceOnUse">
<stop offset="0.322734" stop-color="white" stop-opacity="0"/>
<stop offset="0.738665" stop-color="white"/>
</linearGradient>
<linearGradient id="paint2_linear_2728_23350" x1="-2.71766" y1="3.14078" x2="17.3769" y2="43.9707" gradientUnits="userSpaceOnUse">
<stop offset="0.322734" stop-color="white" stop-opacity="0"/>
<stop offset="0.738665" stop-color="white"/>
</linearGradient>
<linearGradient id="paint3_linear_2728_23350" x1="-2.71766" y1="3.14078" x2="17.3769" y2="43.9707" gradientUnits="userSpaceOnUse">
<stop offset="0.322734" stop-color="white" stop-opacity="0"/>
<stop offset="0.738665" stop-color="white"/>
</linearGradient>
</defs>
</svg>
