<svg width="28" height="28" viewBox="0 0 28 28" fill="none" xmlns="http://www.w3.org/2000/svg">
<path fill-rule="evenodd" clip-rule="evenodd" d="M7.81843 8.36914H3.14648C2.73227 8.36914 2.39648 8.70493 2.39648 9.11914C2.39648 9.53335 2.73227 9.86914 3.14648 9.86914H7.87298C7.7819 9.60614 7.73242 9.32373 7.73242 9.02979C7.73244 8.80135 7.76234 8.57991 7.81843 8.36914ZM12.7199 9.86914H24.8535C25.2677 9.86914 25.6035 9.53335 25.6035 9.11914C25.6035 8.70493 25.2677 8.36914 24.8535 8.36914H12.7744C12.8304 8.57991 12.8603 8.80135 12.8604 9.02979C12.8604 9.32373 12.8109 9.60614 12.7199 9.86914Z" fill="#2A2A27" stroke="#2A2A27" stroke-width="0.7" stroke-linecap="round" stroke-linejoin="round"/>
<path fill-rule="evenodd" clip-rule="evenodd" d="M20.1816 18.3105C20.2377 18.5213 20.2676 18.7428 20.2676 18.9712C20.2676 19.2651 20.2181 19.5476 20.127 19.8105H24.8535C25.2677 19.8105 25.6035 19.4748 25.6035 19.0605C25.6035 18.6463 25.2677 18.3105 24.8535 18.3105H20.1816ZM15.2801 19.8105C15.1891 19.5476 15.1396 19.2651 15.1396 18.9712C15.1397 18.7428 15.1696 18.5213 15.2256 18.3105H3.14648C2.73227 18.3105 2.39648 18.6463 2.39648 19.0605C2.39648 19.4748 2.73227 19.8105 3.14648 19.8105H15.2801Z" fill="#2A2A27" stroke="#2A2A27" stroke-width="0.7" stroke-linecap="round" stroke-linejoin="round"/>
<path fill-rule="evenodd" clip-rule="evenodd" d="M10.2966 12.2427C8.52153 12.2427 7.08253 10.8037 7.08253 9.02856C7.08253 7.25346 8.52153 5.81445 10.2966 5.81445C12.0717 5.81445 13.5107 7.25346 13.5107 9.02856C13.5107 10.8037 12.0717 12.2427 10.2966 12.2427ZM7.81843 8.36768C8.11001 7.27195 9.10928 6.46484 10.2969 6.46484C11.4844 6.46495 12.483 7.27202 12.7744 8.36768C12.8304 8.57844 12.8603 8.79989 12.8604 9.02832C12.8604 9.32227 12.8109 9.60468 12.7199 9.86768C12.3724 10.8716 11.4189 11.5927 10.2969 11.5928C9.17471 11.5928 8.22069 10.8717 7.87298 9.86768C7.7819 9.60468 7.73242 9.32227 7.73242 9.02832C7.73244 8.79989 7.76234 8.57844 7.81843 8.36768Z" fill="white" stroke="#2A2A27" stroke-width="0.7" stroke-linecap="round" stroke-linejoin="round"/>
<path d="M7.73242 9.02832C7.73244 8.79989 7.76234 8.57844 7.81843 8.36768C8.11001 7.27195 9.10928 6.46484 10.2969 6.46484C11.4844 6.46495 12.483 7.27202 12.7744 8.36768C12.8304 8.57844 12.8603 8.79989 12.8604 9.02832C12.8604 9.32227 12.8109 9.60468 12.7199 9.86768C12.3724 10.8716 11.4189 11.5927 10.2969 11.5928C9.17471 11.5928 8.22069 10.8717 7.87298 9.86768C7.7819 9.60468 7.73242 9.32227 7.73242 9.02832ZM6.43262 9.02832C6.43262 11.1624 8.16279 12.8926 10.2969 12.8926C12.4309 12.8924 14.1611 11.1623 14.1611 9.02832C14.161 6.89442 12.4308 5.16419 10.2969 5.16406C8.16287 5.16406 6.43275 6.89434 6.43262 9.02832Z" fill="#2A2A27" stroke="#2A2A27" stroke-width="0.7" stroke-linecap="round" stroke-linejoin="round"/>
<path fill-rule="evenodd" clip-rule="evenodd" d="M17.7034 22.1841C19.4785 22.1841 20.9175 20.7451 20.9175 18.97C20.9175 17.1949 19.4785 15.7559 17.7034 15.7559C15.9283 15.7559 14.4893 17.1949 14.4893 18.97C14.4893 20.7451 15.9283 22.1841 17.7034 22.1841ZM17.7031 16.4062C18.8907 16.4062 19.89 17.2134 20.1816 18.3091C20.2377 18.5198 20.2676 18.7413 20.2676 18.9697C20.2676 19.2637 20.2181 19.5461 20.127 19.8091C19.7793 20.8131 18.8253 21.5342 17.7031 21.5342C16.5811 21.5341 15.6276 20.813 15.2801 19.8091C15.1891 19.5461 15.1396 19.2637 15.1396 18.9697C15.1397 18.7413 15.1696 18.5198 15.2256 18.3091C15.517 17.2134 16.5156 16.4064 17.7031 16.4062Z" fill="white" stroke="#2A2A27" stroke-width="0.7" stroke-linecap="round" stroke-linejoin="round"/>
<path d="M20.2676 18.9697C20.2676 18.7413 20.2377 18.5198 20.1816 18.3091C19.89 17.2134 18.8907 16.4062 17.7031 16.4062C16.5156 16.4064 15.517 17.2134 15.2256 18.3091C15.1696 18.5198 15.1397 18.7413 15.1396 18.9697C15.1396 19.2637 15.1891 19.5461 15.2801 19.8091C15.6276 20.813 16.5811 21.5341 17.7031 21.5342C18.8253 21.5342 19.7793 20.8131 20.127 19.8091C20.2181 19.5461 20.2676 19.2637 20.2676 18.9697ZM21.5674 18.9697C21.5674 21.1038 19.8372 22.834 17.7031 22.834C15.5691 22.8339 13.8389 21.1037 13.8389 18.9697C13.839 16.8358 15.5692 15.1056 17.7031 15.1055C19.8371 15.1055 21.5673 16.8357 21.5674 18.9697Z" fill="#2A2A27" stroke="#2A2A27" stroke-width="0.7" stroke-linecap="round" stroke-linejoin="round"/>
</svg>
