<svg width="24" height="24" viewBox="0 0 24 24" fill="none" xmlns="http://www.w3.org/2000/svg">
<path d="M20.5 12C20.5 7.58172 16.9183 4 12.5 4C8.08172 4 4.5 7.58172 4.5 12C4.5 16.4183 8.08172 20 12.5 20C16.9183 20 20.5 16.4183 20.5 12ZM11.5 8.4209C11.5 7.86861 11.9477 7.4209 12.5 7.4209C13.0523 7.4209 13.5 7.86861 13.5 8.4209V12.4043L16.1914 13.3018C16.7152 13.4765 16.9979 14.0426 16.8232 14.5664C16.6485 15.0902 16.0824 15.3729 15.5586 15.1982L12.1836 14.0732C11.7754 13.937 11.5 13.5553 11.5 13.125V8.4209ZM22.5 12C22.5 17.5228 18.0228 22 12.5 22C6.97715 22 2.5 17.5228 2.5 12C2.5 6.47715 6.97715 2 12.5 2C18.0228 2 22.5 6.47715 22.5 12Z" fill="#959593"/>
</svg>
