<svg width="24" height="24" viewBox="0 0 24 24" fill="none" xmlns="http://www.w3.org/2000/svg">
<path fill-rule="evenodd" clip-rule="evenodd" d="M17.8521 20.8016C17.9975 20.9032 18.166 20.9682 18.3429 20.9909C18.5198 21.0137 18.6997 20.9935 18.8668 20.9321C19.0329 20.8705 19.1807 20.769 19.2966 20.637C19.4125 20.5049 19.4929 20.3465 19.5305 20.1761C20.327 16.5004 22.2594 7.197 22.9844 3.85345C23.0113 3.7292 23.0033 3.60014 22.9613 3.48C22.9193 3.35986 22.845 3.25315 22.7461 3.17124C22.6467 3.08837 22.5267 3.03301 22.3982 3.01086C22.2698 2.98871 22.1377 3.00058 22.0155 3.04524C18.172 4.44206 6.33522 8.80262 1.49711 10.5603C1.34802 10.614 1.21986 10.7123 1.13072 10.8413C1.04158 10.9703 0.995953 11.1236 1.00028 11.2795C1.01128 11.5981 1.22945 11.8744 1.54386 11.9671C3.71358 12.6043 6.56163 13.4908 6.56163 13.4908C6.56163 13.4908 7.89262 17.4373 8.58652 19.4444C8.67361 19.6964 8.87435 19.8944 9.13927 19.9628C9.26912 19.9959 9.40541 19.9962 9.53542 19.9637C9.66542 19.9311 9.78489 19.8667 9.88267 19.7765L12.7206 17.1457C12.7206 17.1457 15.9949 19.5029 17.8521 20.8016ZM7.7597 12.9922L9.29877 17.9764L9.64068 14.8201L18.9768 6.55259C19.0247 6.51034 19.0545 6.4518 19.0602 6.3888C19.0658 6.3258 19.0468 6.26306 19.0071 6.21328C18.9671 6.16339 18.9097 6.12987 18.846 6.11922C18.7823 6.10858 18.7169 6.12157 18.6624 6.15568L7.7597 12.9922Z" fill="#4E4E4B"/>
</svg>
