<svg width="24" height="26" viewBox="0 0 24 26" fill="none" xmlns="http://www.w3.org/2000/svg">
<path fill-rule="evenodd" clip-rule="evenodd" d="M16.8521 20.8016C16.9975 20.9032 17.166 20.9682 17.3429 20.9909C17.5198 21.0137 17.6997 20.9935 17.8668 20.9321C18.0329 20.8705 18.1807 20.769 18.2966 20.637C18.4125 20.5049 18.4929 20.3465 18.5305 20.1761C19.327 16.5004 21.2594 7.197 21.9844 3.85345C22.0113 3.7292 22.0033 3.60014 21.9613 3.48C21.9193 3.35986 21.845 3.25315 21.7461 3.17124C21.6467 3.08837 21.5267 3.03301 21.3982 3.01086C21.2698 2.98871 21.1377 3.00058 21.0155 3.04524C17.172 4.44206 5.33522 8.80262 0.497109 10.5603C0.348022 10.614 0.219864 10.7123 0.130721 10.8413C0.0415786 10.9703 -0.00404737 11.1236 0.000281919 11.2795C0.0112818 11.5981 0.229446 11.8744 0.543859 11.9671C2.71358 12.6043 5.56163 13.4908 5.56163 13.4908C5.56163 13.4908 6.89262 17.4373 7.58652 19.4444C7.67361 19.6964 7.87435 19.8944 8.13927 19.9628C8.26912 19.9959 8.40541 19.9962 8.53542 19.9637C8.66542 19.9311 8.78489 19.8667 8.88267 19.7765L11.7206 17.1457C11.7206 17.1457 14.9949 19.5029 16.8521 20.8016ZM6.7597 12.9922L8.29877 17.9764L8.64068 14.8201L17.9768 6.55259C18.0247 6.51034 18.0545 6.4518 18.0602 6.3888C18.0658 6.3258 18.0468 6.26306 18.0071 6.21328C17.9671 6.16339 17.9097 6.12987 17.846 6.11922C17.7823 6.10858 17.7169 6.12157 17.6624 6.15568L6.7597 12.9922Z" fill="#4E4E4B"/>
</svg>
