<svg width="24" height="24" viewBox="0 0 24 24" fill="none" xmlns="http://www.w3.org/2000/svg">
<path fill-rule="evenodd" clip-rule="evenodd" d="M2.29787 13.5074C1.1307 11.7219 0.291792 9.09614 0.109421 6.68047H0.145897L0 5H4.12158L4.15805 5.98027C4.30395 7.80078 4.81459 9.86635 5.54407 11.1617C6.38298 12.7021 7.769 13.9975 9.22796 14.5226L9.77508 14.6977V5H13.3131V10.4965C13.9331 10.4265 14.4802 10.2865 15.0274 10.0414C16.5228 9.34121 18.2371 7.45068 18.9666 5.70019L19.2584 5H23.0881V5.3501C22.3887 7.9296 20.6936 10.1574 18.3465 11.5818L17.8723 11.9319L18.1641 12.107C19.5642 12.8197 20.8017 13.7939 21.8039 14.9723C22.8061 16.1507 23.5528 17.5095 24 18.9689C24 19.0152 23.0088 19.0002 21.9896 18.9848C21.4693 18.9769 20.9417 18.9689 20.535 18.9689H19.8055L19.5137 18.2687C18.5289 16.0281 16.1945 14.2776 13.8967 13.9975L13.3131 13.9275V18.9689L12.5106 18.8989C7.73252 18.6538 4.44985 16.9033 2.29787 13.5074Z" fill="#4E4E4B"/>
</svg>
